<svg xmlns="http://www.w3.org/2000/svg" viewBox="0 0 800 600">
  <rect width="800" height="600" fill="#1c1c1c"/>
  <!-- Scattered debris shapes -->
  <polygon points="120,150 200,120 220,200 140,210" fill="#333"/>
  <polygon points="350,100 430,130 410,200 340,180" fill="#2e2e2e"/>
  <polygon points="550,160 640,140 660,220 570,230" fill="#363636"/>
  <rect x="100" y="280" width="90" height="120" rx="3" fill="#2a2a2a" transform="rotate(15 145 340)"/>
  <rect x="300" y="250" width="150" height="80" rx="3" fill="#323232" transform="rotate(-10 375 290)"/>
  <polygon points="500,300 600,270 620,380 510,370" fill="#2d2d2d"/>
  <rect x="180" y="400" width="130" height="90" rx="3" fill="#353535" transform="rotate(8 245 445)"/>
  <polygon points="450,410 540,390 560,470 440,460" fill="#303030"/>
  <!-- Label -->
  <text x="400" y="560" text-anchor="middle" font-family="sans-serif" font-size="36" font-weight="bold" fill="#888" letter-spacing="8">BEFORE</text>
</svg>
